<mxfile host="app.diagrams.net" agent="Mozilla/5.0 (X11; Ubuntu; Linux x86_64; rv:143.0) Gecko/20100101 Firefox/143.0" version="28.2.7">
  <diagram name="PÃ¡gina-1" id="-fPCDRTNLiotAz_nvzGO">
    <mxGraphModel grid="0" page="1" gridSize="10" guides="1" tooltips="1" connect="1" arrows="1" fold="1" pageScale="1" pageWidth="1169" pageHeight="827" background="light-dark(#FFFFFF,#FFFFFF)" math="0" shadow="0">
      <root>
        <mxCell id="0" />
        <mxCell id="1" parent="0" />
        <mxCell id="eqKTQkAIwk5ydLmsgt9G-6" value="&lt;font style=&quot;color: light-dark(rgb(0, 0, 0), rgb(0, 0, 0));&quot;&gt;Vivero&lt;/font&gt;" style="rounded=0;whiteSpace=wrap;html=1;fillColor=light-dark(#FFFFFF,#FFFFFF);strokeColor=light-dark(#000000,#000000);" vertex="1" parent="1">
          <mxGeometry x="485" y="107" width="120" height="60" as="geometry" />
        </mxCell>
        <mxCell id="eqKTQkAIwk5ydLmsgt9G-7" style="edgeStyle=orthogonalEdgeStyle;rounded=0;orthogonalLoop=1;jettySize=auto;html=1;exitX=0.5;exitY=1;exitDx=0;exitDy=0;" edge="1" parent="1">
          <mxGeometry relative="1" as="geometry">
            <mxPoint x="460" y="220" as="sourcePoint" />
            <mxPoint x="460" y="220" as="targetPoint" />
          </mxGeometry>
        </mxCell>
        <mxCell id="eqKTQkAIwk5ydLmsgt9G-25" value="&lt;font style=&quot;color: light-dark(rgb(0, 0, 0), rgb(0, 0, 0));&quot;&gt;Producto&lt;/font&gt;" style="rounded=0;whiteSpace=wrap;html=1;fillColor=light-dark(#FFFFFF,#FFFFFF);strokeColor=light-dark(#000000,#000000);" vertex="1" parent="1">
          <mxGeometry x="147" y="118" width="120" height="60" as="geometry" />
        </mxCell>
        <mxCell id="eqKTQkAIwk5ydLmsgt9G-28" value="&lt;span style=&quot;color: rgb(255, 255, 255);&quot;&gt;Codigo&lt;/span&gt;" style="ellipse;whiteSpace=wrap;html=1;aspect=fixed;fillStyle=solid;gradientColor=none;fillColor=#000000;" vertex="1" parent="1">
          <mxGeometry x="210" y="35" width="40" height="40" as="geometry" />
        </mxCell>
        <mxCell id="eqKTQkAIwk5ydLmsgt9G-29" value="" style="endArrow=none;html=1;rounded=0;entryX=0.5;entryY=1;entryDx=0;entryDy=0;exitX=0.75;exitY=0;exitDx=0;exitDy=0;strokeColor=light-dark(#000000,#000000);" edge="1" parent="1" source="eqKTQkAIwk5ydLmsgt9G-25" target="eqKTQkAIwk5ydLmsgt9G-28">
          <mxGeometry width="50" height="50" relative="1" as="geometry">
            <mxPoint x="235" y="260" as="sourcePoint" />
            <mxPoint x="335" y="410" as="targetPoint" />
          </mxGeometry>
        </mxCell>
        <mxCell id="eqKTQkAIwk5ydLmsgt9G-42" value="&lt;font style=&quot;color: light-dark(rgb(0, 0, 0), rgb(0, 0, 0));&quot;&gt;Empleado&lt;/font&gt;" style="rounded=0;whiteSpace=wrap;html=1;fillColor=light-dark(#FFFFFF,#FFFFFF);strokeColor=light-dark(#000000,#000000);" vertex="1" parent="1">
          <mxGeometry x="852" y="107" width="120" height="60" as="geometry" />
        </mxCell>
        <mxCell id="eqKTQkAIwk5ydLmsgt9G-45" value="&lt;font style=&quot;color: light-dark(rgb(0, 0, 0), rgb(0, 0, 0));&quot;&gt;contrato&lt;/font&gt;" style="rhombus;whiteSpace=wrap;html=1;fillColor=light-dark(#FFFFFF,#FFFFFF);strokeColor=light-dark(#000000,#000000);" vertex="1" parent="1">
          <mxGeometry x="695" y="167" width="84" height="80" as="geometry" />
        </mxCell>
        <mxCell id="eqKTQkAIwk5ydLmsgt9G-46" value="" style="endArrow=none;html=1;rounded=0;exitX=1;exitY=0.5;exitDx=0;exitDy=0;entryX=0;entryY=0.75;entryDx=0;entryDy=0;strokeColor=light-dark(#000000,#000000);" edge="1" parent="1" source="eqKTQkAIwk5ydLmsgt9G-45" target="eqKTQkAIwk5ydLmsgt9G-42">
          <mxGeometry width="50" height="50" relative="1" as="geometry">
            <mxPoint x="770" y="270" as="sourcePoint" />
            <mxPoint x="830" y="250" as="targetPoint" />
          </mxGeometry>
        </mxCell>
        <mxCell id="eqKTQkAIwk5ydLmsgt9G-48" value="&lt;font style=&quot;color: light-dark(rgb(0, 0, 0), rgb(0, 0, 0));&quot;&gt;(1:2)&lt;/font&gt;" style="text;html=1;align=center;verticalAlign=middle;whiteSpace=wrap;rounded=0;" vertex="1" parent="1">
          <mxGeometry x="605" y="118" width="40" height="20" as="geometry" />
        </mxCell>
        <mxCell id="eqKTQkAIwk5ydLmsgt9G-49" value="&lt;font style=&quot;color: light-dark(rgb(0, 0, 0), rgb(0, 0, 0));&quot;&gt;(1:N)&lt;/font&gt;" style="text;html=1;align=center;verticalAlign=middle;whiteSpace=wrap;rounded=0;" vertex="1" parent="1">
          <mxGeometry x="815" y="138" width="40" height="20" as="geometry" />
        </mxCell>
        <mxCell id="eqKTQkAIwk5ydLmsgt9G-50" value="&lt;span style=&quot;color: rgb(255, 255, 255);&quot;&gt;ID&lt;/span&gt;" style="ellipse;whiteSpace=wrap;html=1;aspect=fixed;fillStyle=solid;gradientColor=none;fillColor=#000000;" vertex="1" parent="1">
          <mxGeometry x="810" y="47" width="40" height="40" as="geometry" />
        </mxCell>
        <mxCell id="eqKTQkAIwk5ydLmsgt9G-51" value="&lt;font style=&quot;color: light-dark(rgb(0, 0, 0), rgb(0, 0, 0));&quot;&gt;Nombre&lt;/font&gt;" style="ellipse;whiteSpace=wrap;html=1;aspect=fixed;fillColor=light-dark(#FFFFFF,#FFFFFF);strokeColor=light-dark(#000000,#000000);" vertex="1" parent="1">
          <mxGeometry x="850" y="37" width="40" height="40" as="geometry" />
        </mxCell>
        <mxCell id="eqKTQkAIwk5ydLmsgt9G-52" value="&lt;font style=&quot;color: light-dark(rgb(0, 0, 0), rgb(0, 0, 0));&quot;&gt;Direccion&lt;/font&gt;" style="ellipse;whiteSpace=wrap;html=1;aspect=fixed;fillColor=light-dark(#FFFFFF,#FFFFFF);strokeColor=light-dark(#000000,#000000);" vertex="1" parent="1">
          <mxGeometry x="940" y="27" width="40" height="40" as="geometry" />
        </mxCell>
        <mxCell id="eqKTQkAIwk5ydLmsgt9G-54" value="&lt;font style=&quot;color: light-dark(rgb(0, 0, 0), rgb(0, 0, 0));&quot;&gt;Telefono&lt;/font&gt;" style="ellipse;whiteSpace=wrap;html=1;aspect=fixed;fillColor=light-dark(#FFFFFF,#FFFFFF);strokeColor=light-dark(#000000,#000000);" vertex="1" parent="1">
          <mxGeometry x="890" y="27" width="40" height="40" as="geometry" />
        </mxCell>
        <mxCell id="eqKTQkAIwk5ydLmsgt9G-55" value="" style="endArrow=none;html=1;rounded=0;entryX=1;entryY=1;entryDx=0;entryDy=0;exitX=0;exitY=0;exitDx=0;exitDy=0;strokeColor=light-dark(#000000,#000000);" edge="1" parent="1" target="eqKTQkAIwk5ydLmsgt9G-50">
          <mxGeometry width="50" height="50" relative="1" as="geometry">
            <mxPoint x="860" y="107" as="sourcePoint" />
            <mxPoint x="960" y="257" as="targetPoint" />
          </mxGeometry>
        </mxCell>
        <mxCell id="eqKTQkAIwk5ydLmsgt9G-56" value="" style="endArrow=none;html=1;rounded=0;entryX=0.65;entryY=0.983;entryDx=0;entryDy=0;exitX=0.25;exitY=0;exitDx=0;exitDy=0;strokeColor=light-dark(#000000,#000000);entryPerimeter=0;" edge="1" parent="1" target="eqKTQkAIwk5ydLmsgt9G-51">
          <mxGeometry width="50" height="50" relative="1" as="geometry">
            <mxPoint x="890" y="107" as="sourcePoint" />
            <mxPoint x="870" y="157" as="targetPoint" />
          </mxGeometry>
        </mxCell>
        <mxCell id="eqKTQkAIwk5ydLmsgt9G-57" value="" style="endArrow=none;html=1;rounded=0;entryX=0.5;entryY=1;entryDx=0;entryDy=0;exitX=0.447;exitY=-0.006;exitDx=0;exitDy=0;strokeColor=light-dark(#000000,#000000);exitPerimeter=0;" edge="1" parent="1" target="eqKTQkAIwk5ydLmsgt9G-54">
          <mxGeometry width="50" height="50" relative="1" as="geometry">
            <mxPoint x="914" y="107" as="sourcePoint" />
            <mxPoint x="900" y="77" as="targetPoint" />
          </mxGeometry>
        </mxCell>
        <mxCell id="eqKTQkAIwk5ydLmsgt9G-58" value="" style="endArrow=none;html=1;rounded=0;strokeColor=light-dark(#000000,#000000);" edge="1" parent="1">
          <mxGeometry width="50" height="50" relative="1" as="geometry">
            <mxPoint x="950" y="107" as="sourcePoint" />
            <mxPoint x="960" y="67" as="targetPoint" />
          </mxGeometry>
        </mxCell>
        <mxCell id="eqKTQkAIwk5ydLmsgt9G-64" value="&lt;font style=&quot;color: light-dark(rgb(0, 0, 0), rgb(0, 0, 0));&quot;&gt;contiene&lt;/font&gt;" style="rhombus;whiteSpace=wrap;html=1;fillColor=light-dark(#FFFFFF,#FFFFFF);strokeColor=light-dark(#000000,#000000);" vertex="1" parent="1">
          <mxGeometry x="505" y="232" width="80" height="80" as="geometry" />
        </mxCell>
        <mxCell id="eqKTQkAIwk5ydLmsgt9G-65" value="" style="endArrow=none;html=1;rounded=0;exitX=0.5;exitY=1;exitDx=0;exitDy=0;strokeColor=light-dark(#000000,#000000);entryX=0.5;entryY=0;entryDx=0;entryDy=0;" edge="1" parent="1" source="eqKTQkAIwk5ydLmsgt9G-64" target="eqKTQkAIwk5ydLmsgt9G-70">
          <mxGeometry width="50" height="50" relative="1" as="geometry">
            <mxPoint x="830" y="360" as="sourcePoint" />
            <mxPoint x="800" y="450" as="targetPoint" />
          </mxGeometry>
        </mxCell>
        <mxCell id="eqKTQkAIwk5ydLmsgt9G-66" value="" style="endArrow=none;html=1;rounded=0;exitX=0.5;exitY=1;exitDx=0;exitDy=0;entryX=0.5;entryY=0;entryDx=0;entryDy=0;strokeColor=light-dark(#000000,#000000);" edge="1" parent="1" source="eqKTQkAIwk5ydLmsgt9G-6" target="eqKTQkAIwk5ydLmsgt9G-64">
          <mxGeometry width="50" height="50" relative="1" as="geometry">
            <mxPoint x="670" y="355" as="sourcePoint" />
            <mxPoint x="740" y="345" as="targetPoint" />
          </mxGeometry>
        </mxCell>
        <mxCell id="eqKTQkAIwk5ydLmsgt9G-67" value="&lt;font style=&quot;color: light-dark(rgb(0, 0, 0), rgb(0, 0, 0));&quot;&gt;(1:1)&lt;/font&gt;" style="text;html=1;align=center;verticalAlign=middle;whiteSpace=wrap;rounded=0;" vertex="1" parent="1">
          <mxGeometry x="545" y="170" width="40" height="20" as="geometry" />
        </mxCell>
        <mxCell id="eqKTQkAIwk5ydLmsgt9G-68" value="&lt;font style=&quot;color: light-dark(rgb(0, 0, 0), rgb(0, 0, 0));&quot;&gt;(1:N)&lt;/font&gt;" style="text;html=1;align=center;verticalAlign=middle;whiteSpace=wrap;rounded=0;" vertex="1" parent="1">
          <mxGeometry x="542" y="357" width="40" height="20" as="geometry" />
        </mxCell>
        <mxCell id="eqKTQkAIwk5ydLmsgt9G-70" value="&lt;font style=&quot;color: light-dark(rgb(0, 0, 0), rgb(0, 0, 0));&quot;&gt;Zona&lt;/font&gt;" style="rounded=0;whiteSpace=wrap;html=1;fillColor=light-dark(#FFFFFF,#FFFFFF);strokeColor=light-dark(#000000,#000000);" vertex="1" parent="1">
          <mxGeometry x="488" y="375" width="120" height="60" as="geometry" />
        </mxCell>
        <mxCell id="G4RFxjLG0Zh8hfPdCDCR-10" value="&lt;font style=&quot;color: light-dark(rgb(0, 0, 0), rgb(0, 0, 0));&quot;&gt;compra&lt;/font&gt;" style="rhombus;whiteSpace=wrap;html=1;fillColor=light-dark(#FFFFFF,#FFFFFF);strokeColor=light-dark(#000000,#000000);" vertex="1" parent="1">
          <mxGeometry x="150" y="270" width="80" height="80" as="geometry" />
        </mxCell>
        <mxCell id="G4RFxjLG0Zh8hfPdCDCR-11" value="" style="endArrow=none;html=1;rounded=0;exitX=0.5;exitY=0;exitDx=0;exitDy=0;entryX=0.5;entryY=1;entryDx=0;entryDy=0;strokeColor=light-dark(#000000,#000000);" edge="1" parent="1" source="G4RFxjLG0Zh8hfPdCDCR-10" target="eqKTQkAIwk5ydLmsgt9G-25">
          <mxGeometry width="50" height="50" relative="1" as="geometry">
            <mxPoint x="440" y="435" as="sourcePoint" />
            <mxPoint x="490" y="295" as="targetPoint" />
          </mxGeometry>
        </mxCell>
        <mxCell id="G4RFxjLG0Zh8hfPdCDCR-12" value="" style="endArrow=none;html=1;rounded=0;exitX=0.5;exitY=0;exitDx=0;exitDy=0;entryX=0.5;entryY=1;entryDx=0;entryDy=0;strokeColor=light-dark(#000000,#000000);" edge="1" parent="1" source="_c3bVRtIQKW_0mVJJanp-17" target="G4RFxjLG0Zh8hfPdCDCR-10">
          <mxGeometry width="50" height="50" relative="1" as="geometry">
            <mxPoint x="210" y="480" as="sourcePoint" />
            <mxPoint x="350" y="420" as="targetPoint" />
          </mxGeometry>
        </mxCell>
        <mxCell id="G4RFxjLG0Zh8hfPdCDCR-15" value="&lt;font style=&quot;color: light-dark(rgb(0, 0, 0), rgb(0, 0, 0));&quot;&gt;(1:N)&lt;/font&gt;" style="text;html=1;align=center;verticalAlign=middle;whiteSpace=wrap;rounded=0;" vertex="1" parent="1">
          <mxGeometry x="165" y="178" width="40" height="20" as="geometry" />
        </mxCell>
        <mxCell id="G4RFxjLG0Zh8hfPdCDCR-16" value="&lt;font style=&quot;color: light-dark(rgb(0, 0, 0), rgb(0, 0, 0));&quot;&gt;(1:N)&lt;/font&gt;" style="text;html=1;align=center;verticalAlign=middle;whiteSpace=wrap;rounded=0;" vertex="1" parent="1">
          <mxGeometry x="190" y="450" width="40" height="20" as="geometry" />
        </mxCell>
        <mxCell id="G4RFxjLG0Zh8hfPdCDCR-17" value="&lt;span style=&quot;color: rgb(255, 255, 255);&quot;&gt;ID&lt;/span&gt;" style="ellipse;whiteSpace=wrap;html=1;aspect=fixed;fillStyle=solid;gradientColor=none;fillColor=#000000;" vertex="1" parent="1">
          <mxGeometry x="49" y="410" width="40" height="40" as="geometry" />
        </mxCell>
        <mxCell id="G4RFxjLG0Zh8hfPdCDCR-18" value="" style="endArrow=none;html=1;rounded=0;entryX=1;entryY=1;entryDx=0;entryDy=0;exitX=0;exitY=0.25;exitDx=0;exitDy=0;strokeColor=light-dark(#000000,#000000);" edge="1" parent="1" source="_c3bVRtIQKW_0mVJJanp-17" target="G4RFxjLG0Zh8hfPdCDCR-17">
          <mxGeometry width="50" height="50" relative="1" as="geometry">
            <mxPoint x="150" y="490" as="sourcePoint" />
            <mxPoint x="250" y="710" as="targetPoint" />
          </mxGeometry>
        </mxCell>
        <mxCell id="_c3bVRtIQKW_0mVJJanp-1" value="&lt;font style=&quot;color: light-dark(rgb(0, 0, 0), rgb(0, 0, 0));&quot;&gt;Stock&lt;/font&gt;" style="ellipse;whiteSpace=wrap;html=1;aspect=fixed;fillColor=light-dark(#FFFFFF,#FFFFFF);strokeColor=light-dark(#000000,#000000);" vertex="1" parent="1">
          <mxGeometry x="160" y="47" width="40" height="40" as="geometry" />
        </mxCell>
        <mxCell id="_c3bVRtIQKW_0mVJJanp-2" value="" style="endArrow=none;html=1;rounded=0;entryX=0.65;entryY=0.983;entryDx=0;entryDy=0;strokeColor=light-dark(#000000,#000000);entryPerimeter=0;exitX=0.5;exitY=0;exitDx=0;exitDy=0;" edge="1" parent="1" source="eqKTQkAIwk5ydLmsgt9G-25" target="_c3bVRtIQKW_0mVJJanp-1">
          <mxGeometry width="50" height="50" relative="1" as="geometry">
            <mxPoint x="180" y="260" as="sourcePoint" />
            <mxPoint x="160" y="310" as="targetPoint" />
          </mxGeometry>
        </mxCell>
        <mxCell id="_c3bVRtIQKW_0mVJJanp-7" value="&lt;font style=&quot;color: light-dark(rgb(0, 0, 0), rgb(0, 0, 0));&quot;&gt;Cantidad&lt;/font&gt;&lt;div&gt;&lt;font style=&quot;color: light-dark(rgb(0, 0, 0), rgb(0, 0, 0));&quot;&gt;Mensua&lt;/font&gt;&lt;font color=&quot;#000000&quot;&gt;l&lt;/font&gt;&lt;/div&gt;" style="ellipse;whiteSpace=wrap;html=1;aspect=fixed;fillColor=light-dark(#FFFFFF,#FFFFFF);strokeColor=light-dark(#000000,#000000);" vertex="1" parent="1">
          <mxGeometry x="40" y="470" width="40" height="40" as="geometry" />
        </mxCell>
        <mxCell id="_c3bVRtIQKW_0mVJJanp-8" value="" style="endArrow=none;html=1;rounded=0;entryX=1;entryY=0.5;entryDx=0;entryDy=0;exitX=0;exitY=0.5;exitDx=0;exitDy=0;strokeColor=light-dark(#000000,#000000);" edge="1" parent="1" source="_c3bVRtIQKW_0mVJJanp-17" target="_c3bVRtIQKW_0mVJJanp-7">
          <mxGeometry width="50" height="50" relative="1" as="geometry">
            <mxPoint x="150" y="510" as="sourcePoint" />
            <mxPoint x="70" y="570" as="targetPoint" />
          </mxGeometry>
        </mxCell>
        <mxCell id="_c3bVRtIQKW_0mVJJanp-9" value="&lt;font style=&quot;color: light-dark(rgb(0, 0, 0), rgb(0, 0, 0));&quot;&gt;Cantidad&lt;/font&gt;&lt;div&gt;&lt;font style=&quot;color: light-dark(rgb(0, 0, 0), rgb(0, 0, 0));&quot;&gt;Total&lt;/font&gt;&lt;/div&gt;" style="ellipse;whiteSpace=wrap;html=1;aspect=fixed;fillColor=light-dark(#FFFFFF,#FFFFFF);strokeColor=light-dark(#000000,#000000);" vertex="1" parent="1">
          <mxGeometry x="40" y="530" width="40" height="40" as="geometry" />
        </mxCell>
        <mxCell id="_c3bVRtIQKW_0mVJJanp-10" value="" style="endArrow=none;html=1;rounded=0;entryX=1;entryY=0.5;entryDx=0;entryDy=0;exitX=0;exitY=0.75;exitDx=0;exitDy=0;strokeColor=light-dark(#000000,#000000);" edge="1" parent="1" source="_c3bVRtIQKW_0mVJJanp-17" target="_c3bVRtIQKW_0mVJJanp-9">
          <mxGeometry width="50" height="50" relative="1" as="geometry">
            <mxPoint x="150" y="525" as="sourcePoint" />
            <mxPoint x="90" y="620" as="targetPoint" />
          </mxGeometry>
        </mxCell>
        <mxCell id="_c3bVRtIQKW_0mVJJanp-11" value="&lt;font style=&quot;color: light-dark(rgb(0, 0, 0), rgb(0, 0, 0));&quot;&gt;ClienteVIvero&lt;/font&gt;" style="rounded=0;whiteSpace=wrap;html=1;fillColor=light-dark(#FFFFFF,#FFFFFF);strokeColor=light-dark(#000000,#000000);" vertex="1" parent="1">
          <mxGeometry x="200" y="720" width="120" height="60" as="geometry" />
        </mxCell>
        <mxCell id="_c3bVRtIQKW_0mVJJanp-12" value="&lt;font style=&quot;color: light-dark(rgb(0, 0, 0), rgb(0, 0, 0));&quot;&gt;pertenece&lt;/font&gt;" style="rhombus;whiteSpace=wrap;html=1;fillColor=light-dark(#FFFFFF,#FFFFFF);strokeColor=light-dark(#000000,#000000);" vertex="1" parent="1">
          <mxGeometry x="150" y="590" width="80" height="80" as="geometry" />
        </mxCell>
        <mxCell id="_c3bVRtIQKW_0mVJJanp-13" value="" style="endArrow=none;html=1;rounded=0;exitX=0.5;exitY=0;exitDx=0;exitDy=0;strokeColor=light-dark(#000000,#000000);" edge="1" parent="1" source="_c3bVRtIQKW_0mVJJanp-12">
          <mxGeometry width="50" height="50" relative="1" as="geometry">
            <mxPoint x="550" y="635" as="sourcePoint" />
            <mxPoint x="190" y="524" as="targetPoint" />
          </mxGeometry>
        </mxCell>
        <mxCell id="_c3bVRtIQKW_0mVJJanp-14" value="" style="endArrow=none;html=1;rounded=0;exitX=0.5;exitY=0;exitDx=0;exitDy=0;entryX=0.5;entryY=1;entryDx=0;entryDy=0;strokeColor=light-dark(#000000,#000000);" edge="1" parent="1" source="_c3bVRtIQKW_0mVJJanp-11" target="_c3bVRtIQKW_0mVJJanp-12">
          <mxGeometry width="50" height="50" relative="1" as="geometry">
            <mxPoint x="390" y="630" as="sourcePoint" />
            <mxPoint x="460" y="620" as="targetPoint" />
          </mxGeometry>
        </mxCell>
        <mxCell id="r2ss_Fon3ed-DxTmd9JM-11" value="" style="edgeStyle=orthogonalEdgeStyle;rounded=0;orthogonalLoop=1;jettySize=auto;html=1;" edge="1" parent="1" source="_c3bVRtIQKW_0mVJJanp-15" target="_c3bVRtIQKW_0mVJJanp-16">
          <mxGeometry relative="1" as="geometry" />
        </mxCell>
        <mxCell id="r2ss_Fon3ed-DxTmd9JM-14" value="" style="edgeStyle=orthogonalEdgeStyle;rounded=0;orthogonalLoop=1;jettySize=auto;html=1;" edge="1" parent="1" source="_c3bVRtIQKW_0mVJJanp-15" target="_c3bVRtIQKW_0mVJJanp-17">
          <mxGeometry relative="1" as="geometry" />
        </mxCell>
        <mxCell id="_c3bVRtIQKW_0mVJJanp-15" value="&lt;font style=&quot;color: light-dark(rgb(0, 0, 0), rgb(0, 0, 0));&quot;&gt;(1:1)&lt;/font&gt;" style="text;html=1;align=center;verticalAlign=middle;whiteSpace=wrap;rounded=0;" vertex="1" parent="1">
          <mxGeometry x="181" y="530" width="40" height="20" as="geometry" />
        </mxCell>
        <mxCell id="_c3bVRtIQKW_0mVJJanp-16" value="&lt;font style=&quot;color: light-dark(rgb(0, 0, 0), rgb(0, 0, 0));&quot;&gt;(1:1)&lt;/font&gt;" style="text;html=1;align=center;verticalAlign=middle;whiteSpace=wrap;rounded=0;" vertex="1" parent="1">
          <mxGeometry x="257" y="696" width="40" height="20" as="geometry" />
        </mxCell>
        <mxCell id="_c3bVRtIQKW_0mVJJanp-17" value="&lt;font style=&quot;color: light-dark(rgb(0, 0, 0), rgb(0, 0, 0));&quot;&gt;ClientePlus&lt;/font&gt;" style="shape=process;whiteSpace=wrap;html=1;backgroundOutline=1;fillColor=light-dark(#FFFFFF,#FFFFFF);strokeColor=light-dark(#000000,#000000);" vertex="1" parent="1">
          <mxGeometry x="130" y="470" width="120" height="60" as="geometry" />
        </mxCell>
        <mxCell id="_c3bVRtIQKW_0mVJJanp-19" value="&lt;span style=&quot;color: rgb(255, 255, 255);&quot;&gt;ID&lt;/span&gt;" style="ellipse;whiteSpace=wrap;html=1;aspect=fixed;fillStyle=solid;gradientColor=none;fillColor=#000000;" vertex="1" parent="1">
          <mxGeometry x="136" y="676" width="40" height="40" as="geometry" />
        </mxCell>
        <mxCell id="_c3bVRtIQKW_0mVJJanp-20" value="" style="endArrow=none;html=1;rounded=0;entryX=1;entryY=1;entryDx=0;entryDy=0;exitX=0;exitY=0;exitDx=0;exitDy=0;strokeColor=light-dark(#000000,#000000);" edge="1" parent="1" source="_c3bVRtIQKW_0mVJJanp-11" target="_c3bVRtIQKW_0mVJJanp-19">
          <mxGeometry width="50" height="50" relative="1" as="geometry">
            <mxPoint x="150" y="695" as="sourcePoint" />
            <mxPoint x="250" y="915" as="targetPoint" />
          </mxGeometry>
        </mxCell>
        <mxCell id="_c3bVRtIQKW_0mVJJanp-22" value="&lt;font style=&quot;color: light-dark(rgb(0, 0, 0), rgb(0, 0, 0));&quot;&gt;desempeÃ±a&lt;/font&gt;" style="rhombus;whiteSpace=wrap;html=1;fillColor=light-dark(#FFFFFF,#FFFFFF);strokeColor=light-dark(#000000,#000000);" vertex="1" parent="1">
          <mxGeometry x="684" y="284" width="80" height="80" as="geometry" />
        </mxCell>
        <mxCell id="_c3bVRtIQKW_0mVJJanp-23" value="" style="endArrow=none;html=1;rounded=0;exitX=1;exitY=0.5;exitDx=0;exitDy=0;entryX=0;entryY=1;entryDx=0;entryDy=0;strokeColor=light-dark(#000000,#000000);" edge="1" parent="1" source="_c3bVRtIQKW_0mVJJanp-22" target="eqKTQkAIwk5ydLmsgt9G-42">
          <mxGeometry width="50" height="50" relative="1" as="geometry">
            <mxPoint x="780" y="420" as="sourcePoint" />
            <mxPoint x="840" y="425" as="targetPoint" />
          </mxGeometry>
        </mxCell>
        <mxCell id="_c3bVRtIQKW_0mVJJanp-24" value="" style="endArrow=none;html=1;rounded=0;exitX=1;exitY=0;exitDx=0;exitDy=0;entryX=0;entryY=0.5;entryDx=0;entryDy=0;strokeColor=light-dark(#000000,#000000);" edge="1" parent="1" source="eqKTQkAIwk5ydLmsgt9G-70" target="_c3bVRtIQKW_0mVJJanp-22">
          <mxGeometry width="50" height="50" relative="1" as="geometry">
            <mxPoint x="620" y="415" as="sourcePoint" />
            <mxPoint x="690" y="405" as="targetPoint" />
          </mxGeometry>
        </mxCell>
        <mxCell id="_c3bVRtIQKW_0mVJJanp-25" value="&lt;font style=&quot;color: light-dark(rgb(0, 0, 0), rgb(0, 0, 0));&quot;&gt;(1:1)&lt;/font&gt;" style="text;html=1;align=center;verticalAlign=middle;whiteSpace=wrap;rounded=0;" vertex="1" parent="1">
          <mxGeometry x="604" y="374" width="40" height="20" as="geometry" />
        </mxCell>
        <mxCell id="_c3bVRtIQKW_0mVJJanp-26" value="&lt;font style=&quot;color: light-dark(rgb(0, 0, 0), rgb(0, 0, 0));&quot;&gt;(1:N)&lt;/font&gt;" style="text;html=1;align=center;verticalAlign=middle;whiteSpace=wrap;rounded=0;" vertex="1" parent="1">
          <mxGeometry x="844" y="164" width="40" height="20" as="geometry" />
        </mxCell>
        <mxCell id="_c3bVRtIQKW_0mVJJanp-35" value="" style="endArrow=none;html=1;rounded=0;entryX=0.25;entryY=0;entryDx=0;entryDy=0;strokeColor=light-dark(#000000,#000000);exitX=0.5;exitY=1;exitDx=0;exitDy=0;" edge="1" parent="1" source="_c3bVRtIQKW_0mVJJanp-22" target="tlOlPPpL3ZtooHntp505-11">
          <mxGeometry width="50" height="50" relative="1" as="geometry">
            <mxPoint x="805" y="373" as="sourcePoint" />
            <mxPoint x="787" y="423" as="targetPoint" />
          </mxGeometry>
        </mxCell>
        <mxCell id="_c3bVRtIQKW_0mVJJanp-52" value="&lt;font style=&quot;color: light-dark(rgb(0, 0, 0), rgb(0, 0, 0));&quot;&gt;Fecha&lt;/font&gt;" style="ellipse;whiteSpace=wrap;html=1;aspect=fixed;fillColor=light-dark(#FFFFFF,#FFFFFF);strokeColor=light-dark(#000000,#000000);" vertex="1" parent="1">
          <mxGeometry x="706" y="512" width="40" height="40" as="geometry" />
        </mxCell>
        <mxCell id="_c3bVRtIQKW_0mVJJanp-53" value="" style="endArrow=none;html=1;rounded=0;entryX=0.5;entryY=0;entryDx=0;entryDy=0;exitX=0.25;exitY=1;exitDx=0;exitDy=0;strokeColor=light-dark(#000000,#000000);" edge="1" parent="1" source="tlOlPPpL3ZtooHntp505-11" target="_c3bVRtIQKW_0mVJJanp-52">
          <mxGeometry width="50" height="50" relative="1" as="geometry">
            <mxPoint x="1050" y="640" as="sourcePoint" />
            <mxPoint x="1080" y="665" as="targetPoint" />
          </mxGeometry>
        </mxCell>
        <mxCell id="_c3bVRtIQKW_0mVJJanp-55" value="&lt;span style=&quot;color: rgb(255, 255, 255);&quot;&gt;ID&lt;/span&gt;" style="ellipse;whiteSpace=wrap;html=1;aspect=fixed;fillStyle=solid;gradientColor=none;fillColor=#000000;" vertex="1" parent="1">
          <mxGeometry x="770" y="515" width="40" height="40" as="geometry" />
        </mxCell>
        <mxCell id="_c3bVRtIQKW_0mVJJanp-62" value="&lt;font style=&quot;color: light-dark(rgb(0, 0, 0), rgb(0, 0, 0));&quot;&gt;tiene&lt;/font&gt;" style="rhombus;whiteSpace=wrap;html=1;fillColor=light-dark(#FFFFFF,#FFFFFF);strokeColor=light-dark(#000000,#000000);" vertex="1" parent="1">
          <mxGeometry x="336" y="286" width="80" height="80" as="geometry" />
        </mxCell>
        <mxCell id="_c3bVRtIQKW_0mVJJanp-63" value="" style="endArrow=none;html=1;rounded=0;exitX=1;exitY=0.5;exitDx=0;exitDy=0;entryX=0;entryY=0;entryDx=0;entryDy=0;strokeColor=light-dark(#000000,#000000);" edge="1" parent="1" source="_c3bVRtIQKW_0mVJJanp-62" target="eqKTQkAIwk5ydLmsgt9G-70">
          <mxGeometry width="50" height="50" relative="1" as="geometry">
            <mxPoint x="440" y="400" as="sourcePoint" />
            <mxPoint x="500" y="380" as="targetPoint" />
          </mxGeometry>
        </mxCell>
        <mxCell id="_c3bVRtIQKW_0mVJJanp-64" value="" style="endArrow=none;html=1;rounded=0;exitX=1;exitY=1;exitDx=0;exitDy=0;entryX=0;entryY=0.5;entryDx=0;entryDy=0;strokeColor=light-dark(#000000,#000000);" edge="1" parent="1" source="eqKTQkAIwk5ydLmsgt9G-25" target="_c3bVRtIQKW_0mVJJanp-62">
          <mxGeometry width="50" height="50" relative="1" as="geometry">
            <mxPoint x="290" y="400" as="sourcePoint" />
            <mxPoint x="350" y="385" as="targetPoint" />
          </mxGeometry>
        </mxCell>
        <mxCell id="_c3bVRtIQKW_0mVJJanp-65" value="&lt;font style=&quot;color: light-dark(rgb(0, 0, 0), rgb(0, 0, 0));&quot;&gt;(1:N)&lt;/font&gt;" style="text;html=1;align=center;verticalAlign=middle;whiteSpace=wrap;rounded=0;" vertex="1" parent="1">
          <mxGeometry x="230" y="178" width="40" height="20" as="geometry" />
        </mxCell>
        <mxCell id="_c3bVRtIQKW_0mVJJanp-66" value="&lt;font style=&quot;color: light-dark(rgb(0, 0, 0), rgb(0, 0, 0));&quot;&gt;(1:1)&lt;/font&gt;" style="text;html=1;align=center;verticalAlign=middle;whiteSpace=wrap;rounded=0;" vertex="1" parent="1">
          <mxGeometry x="472" y="350" width="40" height="20" as="geometry" />
        </mxCell>
        <mxCell id="_c3bVRtIQKW_0mVJJanp-68" value="&lt;font style=&quot;color: light-dark(rgb(0, 0, 0), rgb(0, 0, 0));&quot;&gt;Cantidad&lt;/font&gt;" style="ellipse;whiteSpace=wrap;html=1;aspect=fixed;fillColor=light-dark(#FFFFFF,#FFFFFF);strokeColor=light-dark(#000000,#000000);" vertex="1" parent="1">
          <mxGeometry x="308" y="381" width="40" height="40" as="geometry" />
        </mxCell>
        <mxCell id="_c3bVRtIQKW_0mVJJanp-69" value="" style="endArrow=none;html=1;rounded=0;entryX=1;entryY=0;entryDx=0;entryDy=0;strokeColor=light-dark(#000000,#000000);" edge="1" parent="1" target="_c3bVRtIQKW_0mVJJanp-68">
          <mxGeometry width="50" height="50" relative="1" as="geometry">
            <mxPoint x="376" y="366" as="sourcePoint" />
            <mxPoint x="330" y="430" as="targetPoint" />
          </mxGeometry>
        </mxCell>
        <mxCell id="_c3bVRtIQKW_0mVJJanp-70" value="&lt;font style=&quot;color: light-dark(rgb(0, 0, 0), rgb(0, 0, 0));&quot;&gt;Cantidad&lt;/font&gt;" style="ellipse;whiteSpace=wrap;html=1;aspect=fixed;fillColor=light-dark(#FFFFFF,#FFFFFF);strokeColor=light-dark(#000000,#000000);" vertex="1" parent="1">
          <mxGeometry x="51" y="306" width="40" height="40" as="geometry" />
        </mxCell>
        <mxCell id="_c3bVRtIQKW_0mVJJanp-71" value="" style="endArrow=none;html=1;rounded=0;entryX=1;entryY=0.5;entryDx=0;entryDy=0;strokeColor=light-dark(#000000,#000000);exitX=0;exitY=0.5;exitDx=0;exitDy=0;" edge="1" parent="1" source="G4RFxjLG0Zh8hfPdCDCR-10" target="_c3bVRtIQKW_0mVJJanp-70">
          <mxGeometry width="50" height="50" relative="1" as="geometry">
            <mxPoint x="110" y="334" as="sourcePoint" />
            <mxPoint x="70" y="344" as="targetPoint" />
          </mxGeometry>
        </mxCell>
        <mxCell id="_c3bVRtIQKW_0mVJJanp-72" value="&lt;font style=&quot;color: light-dark(rgb(0, 0, 0), rgb(0, 0, 0));&quot;&gt;Productividad (ventas)&lt;/font&gt;" style="ellipse;whiteSpace=wrap;html=1;aspect=fixed;fillColor=light-dark(#FFFFFF,#FFFFFF);strokeColor=light-dark(#000000,#000000);" vertex="1" parent="1">
          <mxGeometry x="828" y="515" width="40" height="40" as="geometry" />
        </mxCell>
        <mxCell id="_c3bVRtIQKW_0mVJJanp-76" value="" style="endArrow=none;html=1;rounded=0;exitX=0.75;exitY=1;exitDx=0;exitDy=0;entryX=0.5;entryY=0;entryDx=0;entryDy=0;strokeColor=light-dark(#000000,#000000);" edge="1" parent="1" source="tlOlPPpL3ZtooHntp505-11" target="_c3bVRtIQKW_0mVJJanp-72">
          <mxGeometry width="50" height="50" relative="1" as="geometry">
            <mxPoint x="860" y="620" as="sourcePoint" />
            <mxPoint x="970" y="560" as="targetPoint" />
          </mxGeometry>
        </mxCell>
        <mxCell id="_c3bVRtIQKW_0mVJJanp-79" value="&lt;font style=&quot;color: light-dark(rgb(0, 0, 0), rgb(0, 0, 0));&quot;&gt;GeolocalizaciÃ³n&lt;/font&gt;" style="ellipse;whiteSpace=wrap;html=1;aspect=fixed;fillColor=light-dark(#FFFFFF,#FFFFFF);strokeColor=light-dark(#000000,#000000);" vertex="1" parent="1">
          <mxGeometry x="432" y="450" width="40" height="40" as="geometry" />
        </mxCell>
        <mxCell id="_c3bVRtIQKW_0mVJJanp-80" value="" style="endArrow=none;html=1;rounded=0;entryX=1;entryY=0;entryDx=0;entryDy=0;exitX=0;exitY=1;exitDx=0;exitDy=0;strokeColor=light-dark(#000000,#000000);" edge="1" parent="1" source="eqKTQkAIwk5ydLmsgt9G-70" target="_c3bVRtIQKW_0mVJJanp-79">
          <mxGeometry width="50" height="50" relative="1" as="geometry">
            <mxPoint x="478" y="561" as="sourcePoint" />
            <mxPoint x="600" y="715" as="targetPoint" />
          </mxGeometry>
        </mxCell>
        <mxCell id="_c3bVRtIQKW_0mVJJanp-81" value="&lt;font style=&quot;color: light-dark(rgb(0, 0, 0), rgb(0, 0, 0));&quot;&gt;Longitud&lt;/font&gt;" style="ellipse;whiteSpace=wrap;html=1;aspect=fixed;fillColor=light-dark(#FFFFFF,#FFFFFF);strokeColor=light-dark(#000000,#000000);" vertex="1" parent="1">
          <mxGeometry x="386" y="495" width="40" height="40" as="geometry" />
        </mxCell>
        <mxCell id="_c3bVRtIQKW_0mVJJanp-83" value="&lt;font style=&quot;color: light-dark(rgb(0, 0, 0), rgb(0, 0, 0));&quot;&gt;Latitud&lt;/font&gt;" style="ellipse;whiteSpace=wrap;html=1;aspect=fixed;fillColor=light-dark(#FFFFFF,#FFFFFF);strokeColor=light-dark(#000000,#000000);" vertex="1" parent="1">
          <mxGeometry x="352" y="440" width="40" height="40" as="geometry" />
        </mxCell>
        <mxCell id="_c3bVRtIQKW_0mVJJanp-85" value="" style="endArrow=none;html=1;rounded=0;entryX=1;entryY=0.5;entryDx=0;entryDy=0;exitX=0;exitY=0;exitDx=0;exitDy=0;strokeColor=light-dark(#000000,#000000);" edge="1" parent="1" source="_c3bVRtIQKW_0mVJJanp-79" target="_c3bVRtIQKW_0mVJJanp-83">
          <mxGeometry width="50" height="50" relative="1" as="geometry">
            <mxPoint x="560" y="610" as="sourcePoint" />
            <mxPoint x="530" y="630" as="targetPoint" />
          </mxGeometry>
        </mxCell>
        <mxCell id="_c3bVRtIQKW_0mVJJanp-86" value="" style="endArrow=none;html=1;rounded=0;entryX=1;entryY=0;entryDx=0;entryDy=0;exitX=0;exitY=1;exitDx=0;exitDy=0;strokeColor=light-dark(#000000,#000000);" edge="1" parent="1" source="_c3bVRtIQKW_0mVJJanp-79" target="_c3bVRtIQKW_0mVJJanp-81">
          <mxGeometry width="50" height="50" relative="1" as="geometry">
            <mxPoint x="570" y="610" as="sourcePoint" />
            <mxPoint x="540" y="630" as="targetPoint" />
          </mxGeometry>
        </mxCell>
        <mxCell id="_c3bVRtIQKW_0mVJJanp-88" value="&lt;font style=&quot;color: light-dark(rgb(0, 0, 0), rgb(0, 0, 0));&quot;&gt;hace&lt;/font&gt;" style="rhombus;whiteSpace=wrap;html=1;fillColor=light-dark(#FFFFFF,#FFFFFF);strokeColor=light-dark(#000000,#000000);" vertex="1" parent="1">
          <mxGeometry x="380" y="605" width="80" height="80" as="geometry" />
        </mxCell>
        <mxCell id="_c3bVRtIQKW_0mVJJanp-89" value="" style="endArrow=none;html=1;rounded=0;exitX=0;exitY=0.5;exitDx=0;exitDy=0;entryX=1;entryY=1;entryDx=0;entryDy=0;strokeColor=light-dark(#000000,#000000);" edge="1" parent="1" source="_c3bVRtIQKW_0mVJJanp-88" target="_c3bVRtIQKW_0mVJJanp-17">
          <mxGeometry width="50" height="50" relative="1" as="geometry">
            <mxPoint x="760" y="685" as="sourcePoint" />
            <mxPoint x="420" y="590" as="targetPoint" />
          </mxGeometry>
        </mxCell>
        <mxCell id="_c3bVRtIQKW_0mVJJanp-90" value="" style="endArrow=none;html=1;rounded=0;entryX=1;entryY=0.5;entryDx=0;entryDy=0;strokeColor=light-dark(#000000,#000000);exitX=0;exitY=0.5;exitDx=0;exitDy=0;" edge="1" parent="1" source="_c3bVRtIQKW_0mVJJanp-92" target="_c3bVRtIQKW_0mVJJanp-88">
          <mxGeometry width="50" height="50" relative="1" as="geometry">
            <mxPoint x="520" y="720" as="sourcePoint" />
            <mxPoint x="670" y="670" as="targetPoint" />
          </mxGeometry>
        </mxCell>
        <mxCell id="_c3bVRtIQKW_0mVJJanp-92" value="&lt;font style=&quot;color: light-dark(rgb(0, 0, 0), rgb(0, 0, 0));&quot;&gt;Pedido&lt;/font&gt;" style="rounded=0;whiteSpace=wrap;html=1;fillColor=light-dark(#FFFFFF,#FFFFFF);strokeColor=light-dark(#000000,#000000);" vertex="1" parent="1">
          <mxGeometry x="602" y="720" width="120" height="60" as="geometry" />
        </mxCell>
        <mxCell id="_c3bVRtIQKW_0mVJJanp-93" value="&lt;font style=&quot;color: light-dark(rgb(0, 0, 0), rgb(0, 0, 0));&quot;&gt;Importe&lt;/font&gt;" style="ellipse;whiteSpace=wrap;html=1;aspect=fixed;fillColor=light-dark(#FFFFFF,#FFFFFF);strokeColor=light-dark(#000000,#000000);" vertex="1" parent="1">
          <mxGeometry x="636" y="637" width="40" height="40" as="geometry" />
        </mxCell>
        <mxCell id="_c3bVRtIQKW_0mVJJanp-96" value="" style="endArrow=none;html=1;rounded=0;strokeColor=light-dark(#000000,#000000);entryX=0.5;entryY=0;entryDx=0;entryDy=0;exitX=0.5;exitY=1;exitDx=0;exitDy=0;" edge="1" parent="1" source="_c3bVRtIQKW_0mVJJanp-93" target="_c3bVRtIQKW_0mVJJanp-92">
          <mxGeometry width="50" height="50" relative="1" as="geometry">
            <mxPoint x="690" y="862" as="sourcePoint" />
            <mxPoint x="700" y="822" as="targetPoint" />
          </mxGeometry>
        </mxCell>
        <mxCell id="_c3bVRtIQKW_0mVJJanp-97" value="&lt;font style=&quot;color: light-dark(rgb(0, 0, 0), rgb(0, 0, 0));&quot;&gt;Fecha&lt;/font&gt;" style="ellipse;whiteSpace=wrap;html=1;aspect=fixed;fillColor=light-dark(#FFFFFF,#FFFFFF);strokeColor=light-dark(#000000,#000000);" vertex="1" parent="1">
          <mxGeometry x="702" y="641" width="40" height="40" as="geometry" />
        </mxCell>
        <mxCell id="_c3bVRtIQKW_0mVJJanp-98" value="" style="endArrow=none;html=1;rounded=0;entryX=0.5;entryY=1;entryDx=0;entryDy=0;exitX=0.75;exitY=0;exitDx=0;exitDy=0;strokeColor=light-dark(#000000,#000000);" edge="1" parent="1" source="_c3bVRtIQKW_0mVJJanp-92" target="_c3bVRtIQKW_0mVJJanp-97">
          <mxGeometry width="50" height="50" relative="1" as="geometry">
            <mxPoint x="710" y="877" as="sourcePoint" />
            <mxPoint x="740" y="902" as="targetPoint" />
          </mxGeometry>
        </mxCell>
        <mxCell id="_c3bVRtIQKW_0mVJJanp-100" value="&lt;span style=&quot;color: rgb(255, 255, 255);&quot;&gt;ID&lt;/span&gt;" style="ellipse;whiteSpace=wrap;html=1;aspect=fixed;fillStyle=solid;gradientColor=none;fillColor=#000000;" vertex="1" parent="1">
          <mxGeometry x="587" y="641" width="40" height="40" as="geometry" />
        </mxCell>
        <mxCell id="_c3bVRtIQKW_0mVJJanp-101" value="" style="endArrow=none;html=1;rounded=0;entryX=0.5;entryY=1;entryDx=0;entryDy=0;exitX=0.25;exitY=0;exitDx=0;exitDy=0;strokeColor=light-dark(#000000,#000000);" edge="1" parent="1" source="_c3bVRtIQKW_0mVJJanp-92" target="_c3bVRtIQKW_0mVJJanp-100">
          <mxGeometry width="50" height="50" relative="1" as="geometry">
            <mxPoint x="755" y="687" as="sourcePoint" />
            <mxPoint x="855" y="907" as="targetPoint" />
          </mxGeometry>
        </mxCell>
        <mxCell id="r2ss_Fon3ed-DxTmd9JM-17" value="" style="edgeStyle=orthogonalEdgeStyle;rounded=0;orthogonalLoop=1;jettySize=auto;html=1;" edge="1" parent="1" source="_c3bVRtIQKW_0mVJJanp-102" target="_c3bVRtIQKW_0mVJJanp-88">
          <mxGeometry relative="1" as="geometry" />
        </mxCell>
        <mxCell id="_c3bVRtIQKW_0mVJJanp-102" value="&lt;font style=&quot;color: light-dark(rgb(0, 0, 0), rgb(0, 0, 0));&quot;&gt;(1:N)&lt;/font&gt;" style="text;html=1;align=center;verticalAlign=middle;whiteSpace=wrap;rounded=0;" vertex="1" parent="1">
          <mxGeometry x="565" y="740" width="40" height="20" as="geometry" />
        </mxCell>
        <mxCell id="_c3bVRtIQKW_0mVJJanp-103" value="&lt;font style=&quot;color: light-dark(rgb(0, 0, 0), rgb(0, 0, 0));&quot;&gt;(1:1)&lt;/font&gt;" style="text;html=1;align=center;verticalAlign=middle;whiteSpace=wrap;rounded=0;" vertex="1" parent="1">
          <mxGeometry x="245" y="515" width="40" height="20" as="geometry" />
        </mxCell>
        <mxCell id="_c3bVRtIQKW_0mVJJanp-104" value="&lt;font style=&quot;color: light-dark(rgb(0, 0, 0), rgb(0, 0, 0));&quot;&gt;controlado&lt;/font&gt;" style="rhombus;whiteSpace=wrap;html=1;fillColor=light-dark(#FFFFFF,#FFFFFF);strokeColor=light-dark(#000000,#000000);" vertex="1" parent="1">
          <mxGeometry x="890" y="581" width="80" height="80" as="geometry" />
        </mxCell>
        <mxCell id="_c3bVRtIQKW_0mVJJanp-105" value="" style="endArrow=none;html=1;rounded=0;exitX=0.5;exitY=0;exitDx=0;exitDy=0;entryX=0.75;entryY=1;entryDx=0;entryDy=0;strokeColor=light-dark(#000000,#000000);" edge="1" parent="1" source="_c3bVRtIQKW_0mVJJanp-104" target="eqKTQkAIwk5ydLmsgt9G-42">
          <mxGeometry width="50" height="50" relative="1" as="geometry">
            <mxPoint x="830" y="524" as="sourcePoint" />
            <mxPoint x="910" y="400" as="targetPoint" />
          </mxGeometry>
        </mxCell>
        <mxCell id="_c3bVRtIQKW_0mVJJanp-106" value="" style="endArrow=none;html=1;rounded=0;exitX=0;exitY=0.5;exitDx=0;exitDy=0;entryX=1;entryY=0.5;entryDx=0;entryDy=0;strokeColor=light-dark(#000000,#000000);" edge="1" parent="1" source="_c3bVRtIQKW_0mVJJanp-104" target="_c3bVRtIQKW_0mVJJanp-92">
          <mxGeometry width="50" height="50" relative="1" as="geometry">
            <mxPoint x="830" y="1080" as="sourcePoint" />
            <mxPoint x="920" y="690" as="targetPoint" />
          </mxGeometry>
        </mxCell>
        <mxCell id="_c3bVRtIQKW_0mVJJanp-107" value="&lt;font style=&quot;color: light-dark(rgb(0, 0, 0), rgb(0, 0, 0));&quot;&gt;(1:1)&lt;/font&gt;" style="text;html=1;align=center;verticalAlign=middle;whiteSpace=wrap;rounded=0;" vertex="1" parent="1">
          <mxGeometry x="940" y="164" width="40" height="20" as="geometry" />
        </mxCell>
        <mxCell id="_c3bVRtIQKW_0mVJJanp-108" value="&lt;font style=&quot;color: light-dark(rgb(0, 0, 0), rgb(0, 0, 0));&quot;&gt;(1:1)&lt;/font&gt;" style="text;html=1;align=center;verticalAlign=middle;whiteSpace=wrap;rounded=0;" vertex="1" parent="1">
          <mxGeometry x="717" y="714" width="40" height="20" as="geometry" />
        </mxCell>
        <mxCell id="pi_GFRthwslNubL7Lf_U-7" value="&lt;font style=&quot;color: light-dark(rgb(0, 0, 0), rgb(0, 0, 0));&quot;&gt;(1:1)&lt;/font&gt;" style="text;html=1;align=center;verticalAlign=middle;whiteSpace=wrap;rounded=0;" vertex="1" parent="1">
          <mxGeometry x="483" y="435" width="40" height="20" as="geometry" />
        </mxCell>
        <mxCell id="r2ss_Fon3ed-DxTmd9JM-4" value="" style="endArrow=none;html=1;rounded=0;exitX=0;exitY=0.5;exitDx=0;exitDy=0;entryX=1;entryY=0.5;entryDx=0;entryDy=0;strokeColor=light-dark(#000000,#000000);" edge="1" parent="1" source="eqKTQkAIwk5ydLmsgt9G-45" target="eqKTQkAIwk5ydLmsgt9G-6">
          <mxGeometry width="50" height="50" relative="1" as="geometry">
            <mxPoint x="526" y="253" as="sourcePoint" />
            <mxPoint x="595" y="183" as="targetPoint" />
          </mxGeometry>
        </mxCell>
        <mxCell id="3rf2b4dNFkwjV8_4UrtP-1" value="&lt;font style=&quot;color: light-dark(rgb(0, 0, 0), rgb(0, 0, 0));&quot;&gt;Productividad&lt;/font&gt;" style="ellipse;whiteSpace=wrap;html=1;aspect=fixed;fillColor=light-dark(#FFFFFF,#FFFFFF);strokeColor=light-dark(#000000,#000000);" vertex="1" parent="1">
          <mxGeometry x="496" y="490" width="40" height="40" as="geometry" />
        </mxCell>
        <mxCell id="3rf2b4dNFkwjV8_4UrtP-2" value="" style="endArrow=none;html=1;rounded=0;entryX=0.5;entryY=0;entryDx=0;entryDy=0;strokeColor=light-dark(#000000,#000000);exitX=0.25;exitY=1;exitDx=0;exitDy=0;" edge="1" parent="1" source="eqKTQkAIwk5ydLmsgt9G-70" target="3rf2b4dNFkwjV8_4UrtP-1">
          <mxGeometry width="50" height="50" relative="1" as="geometry">
            <mxPoint x="562" y="458" as="sourcePoint" />
            <mxPoint x="526" y="621" as="targetPoint" />
          </mxGeometry>
        </mxCell>
        <mxCell id="3rf2b4dNFkwjV8_4UrtP-3" value="&lt;font style=&quot;color: light-dark(rgb(0, 0, 0), rgb(0, 0, 0));&quot;&gt;hace&lt;/font&gt;" style="rhombus;whiteSpace=wrap;html=1;fillColor=light-dark(#FFFFFF,#FFFFFF);strokeColor=light-dark(#000000,#000000);" vertex="1" parent="1">
          <mxGeometry x="380" y="706" width="80" height="80" as="geometry" />
        </mxCell>
        <mxCell id="3rf2b4dNFkwjV8_4UrtP-4" value="" style="endArrow=none;html=1;rounded=0;exitX=0;exitY=0.5;exitDx=0;exitDy=0;entryX=1;entryY=0.5;entryDx=0;entryDy=0;strokeColor=light-dark(#000000,#000000);" edge="1" parent="1" source="3rf2b4dNFkwjV8_4UrtP-3" target="_c3bVRtIQKW_0mVJJanp-11">
          <mxGeometry width="50" height="50" relative="1" as="geometry">
            <mxPoint x="1056.5" y="867" as="sourcePoint" />
            <mxPoint x="351.5" y="710" as="targetPoint" />
          </mxGeometry>
        </mxCell>
        <mxCell id="3rf2b4dNFkwjV8_4UrtP-5" value="" style="endArrow=none;html=1;rounded=0;entryX=1;entryY=0.5;entryDx=0;entryDy=0;strokeColor=light-dark(#000000,#000000);exitX=0;exitY=0.75;exitDx=0;exitDy=0;" edge="1" parent="1" source="_c3bVRtIQKW_0mVJJanp-92" target="3rf2b4dNFkwjV8_4UrtP-3">
          <mxGeometry width="50" height="50" relative="1" as="geometry">
            <mxPoint x="898.5" y="932" as="sourcePoint" />
            <mxPoint x="966.5" y="852" as="targetPoint" />
          </mxGeometry>
        </mxCell>
        <mxCell id="3rf2b4dNFkwjV8_4UrtP-6" value="&lt;font style=&quot;color: light-dark(rgb(0, 0, 0), rgb(0, 0, 0));&quot;&gt;(1:1)&lt;/font&gt;" style="text;html=1;align=center;verticalAlign=middle;whiteSpace=wrap;rounded=0;" vertex="1" parent="1">
          <mxGeometry x="320" y="728" width="40" height="20" as="geometry" />
        </mxCell>
        <mxCell id="3rf2b4dNFkwjV8_4UrtP-7" value="&lt;font style=&quot;color: light-dark(rgb(0, 0, 0), rgb(0, 0, 0));&quot;&gt;(1:N)&lt;/font&gt;" style="text;html=1;align=center;verticalAlign=middle;whiteSpace=wrap;rounded=0;" vertex="1" parent="1">
          <mxGeometry x="562" y="766" width="40" height="20" as="geometry" />
        </mxCell>
        <mxCell id="XXZTN5defLTubWRY7O_7-5" value="&lt;span style=&quot;color: rgb(255, 255, 255);&quot;&gt;ID&lt;/span&gt;" style="ellipse;whiteSpace=wrap;html=1;aspect=fixed;fillStyle=solid;gradientColor=none;fillColor=#000000;" vertex="1" parent="1">
          <mxGeometry x="488" y="34" width="40" height="40" as="geometry" />
        </mxCell>
        <mxCell id="XXZTN5defLTubWRY7O_7-6" value="&lt;font style=&quot;color: light-dark(rgb(0, 0, 0), rgb(0, 0, 0));&quot;&gt;Nombre&lt;/font&gt;" style="ellipse;whiteSpace=wrap;html=1;aspect=fixed;fillColor=light-dark(#FFFFFF,#FFFFFF);strokeColor=light-dark(#000000,#000000);" vertex="1" parent="1">
          <mxGeometry x="542" y="39" width="40" height="40" as="geometry" />
        </mxCell>
        <mxCell id="XXZTN5defLTubWRY7O_7-7" value="" style="endArrow=none;html=1;rounded=0;entryX=1;entryY=1;entryDx=0;entryDy=0;exitX=0.25;exitY=0;exitDx=0;exitDy=0;strokeColor=light-dark(#000000,#000000);" edge="1" parent="1" source="eqKTQkAIwk5ydLmsgt9G-6" target="XXZTN5defLTubWRY7O_7-5">
          <mxGeometry width="50" height="50" relative="1" as="geometry">
            <mxPoint x="538" y="94" as="sourcePoint" />
            <mxPoint x="638" y="244" as="targetPoint" />
          </mxGeometry>
        </mxCell>
        <mxCell id="XXZTN5defLTubWRY7O_7-8" value="" style="endArrow=none;html=1;rounded=0;entryX=0.65;entryY=0.983;entryDx=0;entryDy=0;exitX=0.5;exitY=0;exitDx=0;exitDy=0;strokeColor=light-dark(#000000,#000000);entryPerimeter=0;" edge="1" parent="1" source="eqKTQkAIwk5ydLmsgt9G-6" target="XXZTN5defLTubWRY7O_7-6">
          <mxGeometry width="50" height="50" relative="1" as="geometry">
            <mxPoint x="568" y="94" as="sourcePoint" />
            <mxPoint x="548" y="144" as="targetPoint" />
          </mxGeometry>
        </mxCell>
        <mxCell id="XXZTN5defLTubWRY7O_7-9" value="&lt;span style=&quot;color: rgb(255, 255, 255);&quot;&gt;ID&lt;/span&gt;" style="ellipse;whiteSpace=wrap;html=1;aspect=fixed;fillStyle=solid;gradientColor=none;fillColor=#000000;" vertex="1" parent="1">
          <mxGeometry x="555" y="472" width="40" height="40" as="geometry" />
        </mxCell>
        <mxCell id="XXZTN5defLTubWRY7O_7-10" value="" style="endArrow=none;html=1;rounded=0;entryX=0.5;entryY=1;entryDx=0;entryDy=0;exitX=0;exitY=0;exitDx=0;exitDy=0;strokeColor=light-dark(#000000,#000000);" edge="1" parent="1" source="XXZTN5defLTubWRY7O_7-9" target="eqKTQkAIwk5ydLmsgt9G-70">
          <mxGeometry width="50" height="50" relative="1" as="geometry">
            <mxPoint x="586.5" y="535" as="sourcePoint" />
            <mxPoint x="524.5" y="748" as="targetPoint" />
          </mxGeometry>
        </mxCell>
        <mxCell id="XXZTN5defLTubWRY7O_7-11" value="&lt;font style=&quot;color: light-dark(rgb(0, 0, 0), rgb(0, 0, 0));&quot;&gt;Nombre&lt;/font&gt;" style="ellipse;whiteSpace=wrap;html=1;aspect=fixed;fillColor=light-dark(#FFFFFF,#FFFFFF);strokeColor=light-dark(#000000,#000000);" vertex="1" parent="1">
          <mxGeometry x="117" y="59" width="40" height="40" as="geometry" />
        </mxCell>
        <mxCell id="XXZTN5defLTubWRY7O_7-12" value="" style="endArrow=none;html=1;rounded=0;entryX=0.65;entryY=0.983;entryDx=0;entryDy=0;exitX=0.25;exitY=0;exitDx=0;exitDy=0;strokeColor=light-dark(#000000,#000000);entryPerimeter=0;" edge="1" parent="1" source="eqKTQkAIwk5ydLmsgt9G-25" target="XXZTN5defLTubWRY7O_7-11">
          <mxGeometry width="50" height="50" relative="1" as="geometry">
            <mxPoint x="-304" y="51" as="sourcePoint" />
            <mxPoint x="123" y="164" as="targetPoint" />
          </mxGeometry>
        </mxCell>
        <mxCell id="XXZTN5defLTubWRY7O_7-13" value="&lt;font style=&quot;color: light-dark(rgb(0, 0, 0), rgb(0, 0, 0));&quot;&gt;Fecha&lt;/font&gt;&lt;div&gt;&lt;font style=&quot;color: light-dark(rgb(0, 0, 0), rgb(0, 0, 0));&quot;&gt;Alta&lt;/font&gt;&lt;/div&gt;" style="ellipse;whiteSpace=wrap;html=1;aspect=fixed;fillColor=light-dark(#FFFFFF,#FFFFFF);strokeColor=light-dark(#000000,#000000);" vertex="1" parent="1">
          <mxGeometry x="75" y="570" width="40" height="40" as="geometry" />
        </mxCell>
        <mxCell id="XXZTN5defLTubWRY7O_7-14" value="" style="endArrow=none;html=1;rounded=0;entryX=1;entryY=0.5;entryDx=0;entryDy=0;exitX=0.25;exitY=1;exitDx=0;exitDy=0;strokeColor=light-dark(#000000,#000000);" edge="1" parent="1" source="_c3bVRtIQKW_0mVJJanp-17" target="XXZTN5defLTubWRY7O_7-13">
          <mxGeometry width="50" height="50" relative="1" as="geometry">
            <mxPoint x="165" y="555" as="sourcePoint" />
            <mxPoint x="125" y="660" as="targetPoint" />
          </mxGeometry>
        </mxCell>
        <mxCell id="tlOlPPpL3ZtooHntp505-3" value="&lt;font style=&quot;color: light-dark(rgb(0, 0, 0), rgb(0, 0, 0));&quot;&gt;Fecha&lt;/font&gt;" style="ellipse;whiteSpace=wrap;html=1;aspect=fixed;fillColor=light-dark(#FFFFFF,#FFFFFF);strokeColor=light-dark(#000000,#000000);" vertex="1" parent="1">
          <mxGeometry x="1007" y="597" width="40" height="40" as="geometry" />
        </mxCell>
        <mxCell id="tlOlPPpL3ZtooHntp505-4" value="" style="endArrow=none;html=1;rounded=0;entryX=0;entryY=0.5;entryDx=0;entryDy=0;exitX=1;exitY=0.5;exitDx=0;exitDy=0;strokeColor=light-dark(#000000,#000000);" edge="1" parent="1" source="_c3bVRtIQKW_0mVJJanp-104" target="tlOlPPpL3ZtooHntp505-3">
          <mxGeometry width="50" height="50" relative="1" as="geometry">
            <mxPoint x="1110" y="608" as="sourcePoint" />
            <mxPoint x="1345" y="701" as="targetPoint" />
          </mxGeometry>
        </mxCell>
        <mxCell id="tlOlPPpL3ZtooHntp505-8" value="&lt;font style=&quot;color: light-dark(rgb(0, 0, 0), rgb(0, 0, 0));&quot;&gt;Puesto&lt;/font&gt;" style="ellipse;whiteSpace=wrap;html=1;aspect=fixed;fillColor=light-dark(#FFFFFF,#FFFFFF);strokeColor=light-dark(#000000,#000000);" vertex="1" parent="1">
          <mxGeometry x="1016" y="541" width="40" height="40" as="geometry" />
        </mxCell>
        <mxCell id="tlOlPPpL3ZtooHntp505-9" value="" style="endArrow=none;html=1;rounded=0;strokeColor=light-dark(#000000,#000000);exitX=0;exitY=1;exitDx=0;exitDy=0;entryX=1;entryY=0.5;entryDx=0;entryDy=0;" edge="1" parent="1" source="tlOlPPpL3ZtooHntp505-8" target="_c3bVRtIQKW_0mVJJanp-104">
          <mxGeometry width="50" height="50" relative="1" as="geometry">
            <mxPoint x="1296" y="1012" as="sourcePoint" />
            <mxPoint x="1023" y="748" as="targetPoint" />
          </mxGeometry>
        </mxCell>
        <mxCell id="tlOlPPpL3ZtooHntp505-10" value="&lt;font style=&quot;color: light-dark(rgb(0, 0, 0), rgb(0, 0, 0));&quot;&gt;(1:1)&lt;/font&gt;" style="text;html=1;align=center;verticalAlign=middle;whiteSpace=wrap;rounded=0;" vertex="1" parent="1">
          <mxGeometry x="751" y="410" width="40" height="20" as="geometry" />
        </mxCell>
        <mxCell id="tlOlPPpL3ZtooHntp505-11" value="&lt;font style=&quot;color: light-dark(rgb(0, 0, 0), rgb(0, 0, 0));&quot;&gt;HistoricoDesempeÃ±o&lt;/font&gt;" style="shape=process;whiteSpace=wrap;html=1;backgroundOutline=1;fillColor=light-dark(#FFFFFF,#FFFFFF);strokeColor=light-dark(#000000,#000000);" vertex="1" parent="1">
          <mxGeometry x="727" y="430" width="120" height="60" as="geometry" />
        </mxCell>
        <mxCell id="tlOlPPpL3ZtooHntp505-14" value="" style="endArrow=none;html=1;rounded=0;exitX=0.5;exitY=1;exitDx=0;exitDy=0;entryX=0.5;entryY=0;entryDx=0;entryDy=0;strokeColor=light-dark(#000000,#000000);" edge="1" parent="1" source="tlOlPPpL3ZtooHntp505-11" target="_c3bVRtIQKW_0mVJJanp-55">
          <mxGeometry width="50" height="50" relative="1" as="geometry">
            <mxPoint x="852" y="518" as="sourcePoint" />
            <mxPoint x="899" y="543" as="targetPoint" />
          </mxGeometry>
        </mxCell>
        <mxCell id="JWCMCE4iksv5vMvCX6W4-1" value="ImporteTotal" style="ellipse;whiteSpace=wrap;html=1;aspect=fixed;fillColor=light-dark(#FFFFFF,#FFFFFF);strokeColor=light-dark(#000000,#000000);" vertex="1" parent="1">
          <mxGeometry x="54" y="246" width="40" height="40" as="geometry" />
        </mxCell>
        <mxCell id="JWCMCE4iksv5vMvCX6W4-2" value="" style="endArrow=none;html=1;rounded=0;entryX=1;entryY=0.5;entryDx=0;entryDy=0;strokeColor=light-dark(#000000,#000000);exitX=0;exitY=0.5;exitDx=0;exitDy=0;" edge="1" parent="1" source="G4RFxjLG0Zh8hfPdCDCR-10" target="JWCMCE4iksv5vMvCX6W4-1">
          <mxGeometry width="50" height="50" relative="1" as="geometry">
            <mxPoint x="150" y="259" as="sourcePoint" />
            <mxPoint x="70" y="293" as="targetPoint" />
          </mxGeometry>
        </mxCell>
        <mxCell id="JWCMCE4iksv5vMvCX6W4-3" value="&lt;font style=&quot;color: rgb(255, 255, 255);&quot;&gt;ID_Compra&lt;/font&gt;" style="ellipse;whiteSpace=wrap;html=1;aspect=fixed;fillColor=#000000;strokeColor=light-dark(#000000,#000000);" vertex="1" parent="1">
          <mxGeometry x="77" y="200" width="40" height="40" as="geometry" />
        </mxCell>
        <mxCell id="JWCMCE4iksv5vMvCX6W4-4" value="" style="endArrow=none;html=1;rounded=0;entryX=1;entryY=1;entryDx=0;entryDy=0;strokeColor=light-dark(#000000,#000000);exitX=0;exitY=0.5;exitDx=0;exitDy=0;" edge="1" parent="1" source="G4RFxjLG0Zh8hfPdCDCR-10" target="JWCMCE4iksv5vMvCX6W4-3">
          <mxGeometry width="50" height="50" relative="1" as="geometry">
            <mxPoint x="176" y="217" as="sourcePoint" />
            <mxPoint x="96" y="251" as="targetPoint" />
          </mxGeometry>
        </mxCell>
        <mxCell id="JWCMCE4iksv5vMvCX6W4-5" value="&lt;font style=&quot;color: light-dark(rgb(0, 0, 0), rgb(0, 0, 0));&quot;&gt;Fecha&lt;/font&gt;" style="ellipse;whiteSpace=wrap;html=1;aspect=fixed;fillColor=light-dark(#FFFFFF,#FFFFFF);strokeColor=light-dark(#000000,#000000);" vertex="1" parent="1">
          <mxGeometry x="71" y="354" width="40" height="40" as="geometry" />
        </mxCell>
        <mxCell id="JWCMCE4iksv5vMvCX6W4-6" value="" style="endArrow=none;html=1;rounded=0;entryX=1;entryY=0.5;entryDx=0;entryDy=0;strokeColor=light-dark(#000000,#000000);exitX=0;exitY=0.5;exitDx=0;exitDy=0;" edge="1" parent="1" source="G4RFxjLG0Zh8hfPdCDCR-10" target="JWCMCE4iksv5vMvCX6W4-5">
          <mxGeometry width="50" height="50" relative="1" as="geometry">
            <mxPoint x="157" y="352" as="sourcePoint" />
            <mxPoint x="77" y="386" as="targetPoint" />
          </mxGeometry>
        </mxCell>
      </root>
    </mxGraphModel>
  </diagram>
</mxfile>
